<svg xmlns="http://www.w3.org/2000/svg" width="395.502" height="86.732" viewBox="0 0 395.502 86.732"><g transform="translate(75.322)"><path d="M.25,69.5V11.874H18.543v8.369q5.141-9.923,18.651-9.923,21.043,0,21.042,23.553V69.5H39.824V39.851q0-7.413-2.331-10.76t-7.831-3.348q-11.119,0-11.119,13.63V69.5ZM127.341,37.7a75.157,75.157,0,0,1-.478,8.01H84.3a11.629,11.629,0,0,0,3.826,8.728q3.587,3.109,9.684,3.109,8.369,0,10.76-5.38H126.5q-1.315,8.489-9.266,13.809T97.81,71.295q-14.706,0-23.194-8.13T66.127,40.688q0-14.108,8.489-22.3t22.6-8.19q13.391,0,21.76,7.652T127.341,37.7ZM84.3,34.351h24.988q-.12-5.739-3.228-8.847T97.093,22.4q-5.858,0-9.266,3.288A11.885,11.885,0,0,0,84.3,34.351Z" transform="translate(-0.25 14.19)" fill="#1eafa8"/><path d="M88.107,27.14q11.836,0,19.249,8.07t7.413,20.983q0,12.673-7.652,20.8t-19.608,8.13a23.4,23.4,0,0,1-11.657-2.989,19.286,19.286,0,0,1-7.951-8.13v9.684H57.5V0H67.9V38.259a19.124,19.124,0,0,1,8.07-8.13A24.778,24.778,0,0,1,88.107,27.14ZM86.075,75.8a17.206,17.206,0,0,0,13.151-5.5q5.141-5.5,5.141-14.108T99.226,42.025a17.116,17.116,0,0,0-13.151-5.56,17.678,17.678,0,0,0-13.45,5.5q-5.2,5.5-5.2,14.228,0,8.608,5.2,14.108A17.678,17.678,0,0,0,86.075,75.8Zm45.193-56.671a8.259,8.259,0,0,1-6.1-2.391,8.111,8.111,0,0,1-2.391-5.978,8.312,8.312,0,0,1,2.391-6.038,8.152,8.152,0,0,1,6.1-2.451,8.009,8.009,0,0,1,5.978,2.451,8.312,8.312,0,0,1,2.391,6.038,8.172,8.172,0,0,1-8.369,8.369Zm-5.261,64.562V28.575h10.4V83.691Zm49.258-8.728a32.414,32.414,0,0,0,6.934-.6v9.206a41.655,41.655,0,0,1-9.206.837,34.608,34.608,0,0,1-4.364-.239,16.907,16.907,0,0,1-4.364-1.315,11.158,11.158,0,0,1-4.185-3.049,16.748,16.748,0,0,1-2.869-5.619,28.39,28.39,0,0,1-1.2-8.788V37.3h-9.923V28.575h9.923V11.119h10.4V28.575h13.869V37.3H166.418V63.127q0,7.293,2.152,9.565T175.266,74.964Zm65.518-22q0,2.272-.359,6.217H197.743q.12,7.891,4.782,12.374t12.554,4.483q11,0,14.586-8.13h10.4A18.982,18.982,0,0,1,231.7,80.344a28.547,28.547,0,0,1-16.619,4.782q-12.673,0-20.146-7.831t-7.472-21.222q0-13.152,7.413-21.042T214.6,27.14q11.717,0,18.95,7.174T240.784,52.965Zm-43.041-1.793H230.5q0-7.293-4.244-11.478t-11.777-4.185q-7.413,0-11.9,4.3A16.232,16.232,0,0,0,197.743,51.171Z" transform="translate(79.395)" fill="#474e62"/></g><path d="M34.874,61.918c-7.8,0-13.8-5.641-13.8-14.161s6-14.159,13.8-14.159,13.8,5.638,13.8,14.159-6,14.161-13.8,14.161Zm15.92-45.8a15.877,15.877,0,0,1-3.337-.27,38.076,38.076,0,0,0,4.806-1.394A18.235,18.235,0,0,0,55.93.087,18.269,18.269,0,0,0,42.148,11.044c-.128.3-.259.629-.385.971-.044.125-.09.248-.131.375a11.225,11.225,0,0,0-.376,1.311c-.022.087-.051.17-.073.259a18.351,18.351,0,0,1,.736-3.721,14.186,14.186,0,0,0-5.4-7.191,12.409,12.409,0,0,0,.6,2.322,12.727,12.727,0,0,1-2.357-3.1,14.218,14.218,0,0,0,.791,13.846c-.228,0-.448-.032-.677-.032a32.688,32.688,0,0,0-9.366,1.361l.007.006c.447,11.838-9.907,9.149-9.907,9.149C16.89,36.318,7.7,34.6,7.7,34.6c.52,1.223,1.737,4.5-1.2,9.274a5.156,5.156,0,0,1-3.353,2.454c-.021.478-.072.945-.072,1.428a31.451,31.451,0,0,0,31.8,31.681,31.45,31.45,0,0,0,31.8-31.681A31.319,31.319,0,0,0,47.6,18.663,18.348,18.348,0,0,0,50.794,16.12ZM4.381,31.165c1.3-2.416-2.564-2.425-2.564-2.425s-2.795.7-1.452,2.527c.755,1.027,2.717,2.311,4.016-.1Zm.682-11.212a1.876,1.876,0,0,0,1.85-3.15A9.714,9.714,0,0,0,3.52,15.14a.844.844,0,0,0-1.079,1c.345,1.333,1.093,3.231,2.621,3.81Zm6.231,4.436c1.912.445,4.523-2.588,3.963-4.743s-4.983-.536-4.624,1.6c0,0-1.25,2.7.661,3.142ZM6.188,27.808s-.467,2.7,1.275,1.766c.98-.525.519-2.33-1.275-1.766Z" transform="translate(0 7.294)" fill="#1eafa8" fill-rule="evenodd"/></svg>